<?xml version="1.0" encoding="utf-8"?>
<!-- Uploaded to: SVG Repo, www.svgrepo.com, Generator: SVG Repo Mixer Tools -->
<svg width="800px" height="800px" viewBox="0 0 1024 1024" class="icon"  version="1.1" xmlns="http://www.w3.org/2000/svg"><path d="M234.666667 682.666667a21.333333 21.333333 0 0 0-21.333334-21.333334H128a21.333333 21.333333 0 0 0-21.333333 21.333334v128a21.333333 21.333333 0 0 0 21.333333 21.333333h85.333333a21.333333 21.333333 0 0 0 21.333334-21.333333v-128zM917.333333 682.666667a21.333333 21.333333 0 0 0-21.333333-21.333334h-85.333333a21.333333 21.333333 0 0 0-21.333334 21.333334v128a21.333333 21.333333 0 0 0 21.333334 21.333333h85.333333a21.333333 21.333333 0 0 0 21.333333-21.333333v-128z" fill="#455A64" /><path d="M938.666667 426.666667H85.333333a21.333333 21.333333 0 0 0-21.333333 21.333333v42.666667a21.333333 21.333333 0 0 0 21.333333 21.333333h853.333334a21.333333 21.333333 0 0 0 21.333333-21.333333v-42.666667a21.333333 21.333333 0 0 0-21.333333-21.333333z" fill="#AB47BC" /><path d="M874.666667 490.666667l-42.666667-21.226667C824.874667 469.376 199.082667 469.333333 192 469.333333l-42.666667 21.333334c-23.552 0-42.666667 40.448-42.666666 64v170.666666a21.333333 21.333333 0 0 0 21.333333 21.333334h768a21.333333 21.333333 0 0 0 21.333333-21.333334v-170.666666c0-23.552-19.114667-64-42.666666-64z" fill="#AB47BC" /><path d="M848.768 490.709333c-3.050667-18.944-8.170667-48.704-16.768-96.042666C810.666667 277.333333 769.92 192 693.333333 192h-362.666666c-76.586667 0-118.677333 96-138.666667 202.666667-8.704 46.421333-13.866667 76.650667-16.917333 96.042666h673.685333z" fill="#AB47BC" /><path d="M874.666667 661.333333a21.333333 21.333333 0 0 1-21.333334 21.333334H170.666667a21.333333 21.333333 0 0 1-21.333334-21.333334v-64a21.333333 21.333333 0 0 1 21.333334-21.333333h682.666666a21.333333 21.333333 0 0 1 21.333334 21.333333v64z" fill="#212121" /><path d="M202.666667 629.333333m-32 0a32 32 0 1 0 64 0 32 32 0 1 0-64 0Z" fill="#FFEB3B" /><path d="M821.333333 629.333333m-32 0a32 32 0 1 0 64 0 32 32 0 1 0-64 0Z" fill="#FFEB3B" /><path d="M790.016 402.282667C771.157333 298.666667 743.552 234.666667 693.333333 234.666667h-362.666666c-46.677333 0-78.613333 71.232-96.725334 167.872A4333.76 4333.76 0 0 0 221.866667 469.333333h580.053333c-2.901333-16.917333-6.762667-38.698667-11.904-67.050666z" fill="#E3F2FD" /><path d="M352 448c-41.173333 0-74.666667-33.450667-74.666667-74.666667s33.493333-74.666667 74.666667-74.666666 74.666667 33.450667 74.666667 74.666666-33.493333 74.666667-74.666667 74.666667M650.666667 448c-41.173333 0-74.666667-33.450667-74.666667-74.666667s33.493333-74.666667 74.666667-74.666666 74.666667 33.450667 74.666666 74.666666-33.493333 74.666667-74.666666 74.666667" fill="#FFB74D" /><path d="M501.333333 373.333333c-29.397333 0-53.333333-23.914667-53.333333-53.333333s23.936-53.333333 53.333333-53.333333S554.666667 290.581333 554.666667 320s-23.936 53.333333-53.333334 53.333333" fill="#FFA726" /></svg>