<svg width="34" height="34" viewBox="0 0 34 34" fill="none" xmlns="http://www.w3.org/2000/svg">
<rect width="34" height="34" rx="4" fill="white"/>
<path d="M15.1265 22.1001C14.9938 22.3764 14.9216 22.6831 14.9216 23.0001C14.9216 23.7427 15.3177 24.4288 15.9608 24.8001C16.6039 25.1714 17.3962 25.1714 18.0393 24.8001C18.6824 24.4288 19.0785 23.7427 19.0785 23.0001C19.0785 22.6831 19.0063 22.3764 18.8736 22.1001H15.1265Z" fill="#C2CCDE" fill-opacity="0.25"/>
<path d="M16.8883 10.1001C15.6152 10.1001 14.3943 10.6058 13.4942 11.506L13.3059 11.6942C12.4058 12.5944 11.9 13.8153 11.9 15.0883V15.9698C11.9 17.59 11.2564 19.1439 10.1107 20.2896C9.91179 20.4885 9.80005 20.7583 9.80005 21.0396C9.80005 21.6253 10.2749 22.1001 10.8606 22.1001H23.1395C23.7252 22.1001 24.2 21.6253 24.2 21.0396C24.2 20.7583 24.0883 20.4885 23.8894 20.2896C22.7437 19.1439 22.1 17.59 22.1 15.9698V15.0883C22.1 13.8153 21.5943 12.5944 20.6942 11.6942L20.5059 11.506C19.6058 10.6058 18.3849 10.1001 17.1118 10.1001H16.8883Z" fill="#C2CCDE" fill-opacity="0.25"/>
<path d="M17.6 10.125V9.2001C17.6 8.86873 17.3314 8.6001 17 8.6001C16.6687 8.6001 16.4 8.86873 16.4 9.2001V10.125C16.5615 10.1085 16.7245 10.1001 16.8883 10.1001H17.1118C17.2756 10.1001 17.4386 10.1085 17.6 10.125Z" fill="#C2CCDE" fill-opacity="0.25"/>
<path d="M16.8883 10.1001C15.6152 10.1001 14.3943 10.6058 13.4942 11.506L13.3059 11.6942C12.4058 12.5944 11.9 13.8153 11.9 15.0883V15.9698C11.9 17.59 11.2564 19.1439 10.1107 20.2896C9.91179 20.4885 9.80005 20.7583 9.80005 21.0396C9.80005 21.6253 10.2749 22.1001 10.8606 22.1001H23.1395C23.7252 22.1001 24.2 21.6253 24.2 21.0396C24.2 20.7583 24.0883 20.4885 23.8894 20.2896C22.7437 19.1439 22.1 17.59 22.1 15.9698V15.0883C22.1 13.8153 21.5943 12.5944 20.6942 11.6942L20.5059 11.506C19.6058 10.6058 18.3849 10.1001 17.1118 10.1001M16.8883 10.1001H17.1118M16.8883 10.1001C16.7245 10.1001 16.5615 10.1085 16.4 10.125V9.2001C16.4 8.86873 16.6687 8.6001 17 8.6001C17.3314 8.6001 17.6 8.86873 17.6 9.2001V10.125C17.4386 10.1085 17.2756 10.1001 17.1118 10.1001M14.9216 23.0001C14.9216 22.6831 14.9938 22.3764 15.1265 22.1001H18.8736C19.0063 22.3764 19.0785 22.6831 19.0785 23.0001C19.0785 23.7427 18.6824 24.4288 18.0393 24.8001C17.3962 25.1714 16.6039 25.1714 15.9608 24.8001C15.3177 24.4288 14.9216 23.7427 14.9216 23.0001Z" stroke="#414141" stroke-linecap="round" stroke-linejoin="round"/>
</svg>
