<svg width="375" height="210" viewBox="0 0 375 210" fill="none" xmlns="http://www.w3.org/2000/svg">
<path d="M312.412 208.132C312.412 208.132 368.037 183.391 366.742 133.476C365.449 83.5602 312.731 60.3488 276.942 91.1667C241.152 121.984 217.99 96.1416 199.448 70.0984C180.907 44.0558 139.544 11.189 85.2753 26.3761C28.4258 42.2852 10.9321 99.865 16.5631 138.289C20.6079 165.888 35.4007 189.288 55.5589 207.268C56.2145 207.853 56.8856 208.431 57.5724 209L312.412 208.132Z" fill="#E2F5ED"/>
<path d="M66.7517 101.681H39.145V137.21H66.7517V101.681Z" fill="#B9E5D1"/>
<path d="M256.978 83.2788H208.854V131.409H256.978V83.2788Z" fill="#B9E5D1"/>
<path d="M129.265 89.3422H101.658V124.871H129.265V89.3422Z" fill="#B9E5D1"/>
<path d="M181.497 108.571H153.891V144.099H181.497V108.571Z" fill="#B9E5D1"/>
<path d="M372.676 169.276H11.5383V122.657H372.676V169.276Z" fill="#B9E5D1"/>
<path d="M39.1451 87.1278H11.5383V122.657H39.1451V87.1278Z" fill="#B9E5D1"/>
<path d="M157.817 54.6682C157.817 64.6066 149.762 72.6627 139.825 72.6627C129.888 72.6627 121.832 64.6066 121.832 54.6682C121.832 44.7298 129.888 36.6737 139.825 36.6737C149.762 36.6737 157.817 44.7298 157.817 54.6682Z" fill="#E9EDFD"/>
<path d="M143.99 46.4206C143.99 48.7207 142.125 50.5856 139.825 50.5856C137.525 50.5856 135.661 48.7207 135.661 46.4206C135.661 44.1205 137.525 42.2556 139.825 42.2556C142.125 42.2556 143.99 44.1205 143.99 46.4206Z" fill="#E2F5ED"/>
<path d="M160.85 169.276H118.8V53.1968H160.85V169.276Z" fill="#FF742F" fill-opacity="0.5"/>
<path d="M132.856 77.9637H124.495V61.5107H132.856V77.9637Z" fill="#B9E5D1"/>
<path d="M153.891 77.9637H145.531V61.5107H153.891V77.9637Z" fill="#B9E5D1"/>
<path d="M132.856 103.047H124.495V86.5947H132.856V103.047Z" fill="#B9E5D1"/>
<path d="M153.891 103.047H145.531V86.5947H153.891V103.047Z" fill="#B9E5D1"/>
<path d="M132.856 128.132H124.495V111.679H132.856V128.132Z" fill="#B9E5D1"/>
<path d="M153.891 128.132H145.531V111.679H153.891V128.132Z" fill="#B9E5D1"/>
<path d="M132.856 153.216H124.495V136.763H132.856V153.216Z" fill="#B9E5D1"/>
<path d="M153.891 153.216H145.531V136.763H153.891V153.216Z" fill="#B9E5D1"/>
<path d="M216.482 169.276H170.75V26.3675H216.482V169.276Z" fill="#FF742F" fill-opacity="0.5"/>
<path d="M181.496 42.7683H175.26V36.5318H181.496V42.7683Z" fill="#B9E5D1"/>
<path d="M196.734 42.7683H190.498V36.5318H196.734V42.7683Z" fill="#B9E5D1"/>
<path d="M211.972 42.7683H205.737V36.5318H211.972V42.7683Z" fill="#B9E5D1"/>
<path d="M181.496 53.7845H175.26V47.548H181.496V53.7845Z" fill="#B9E5D1"/>
<path d="M196.734 53.7845H190.498V47.548H196.734V53.7845Z" fill="#B9E5D1"/>
<path d="M211.972 53.7845H205.737V47.548H211.972V53.7845Z" fill="#B9E5D1"/>
<path d="M181.496 64.8007H175.26V58.5642H181.496V64.8007Z" fill="#B9E5D1"/>
<path d="M196.734 64.8007H190.498V58.5642H196.734V64.8007Z" fill="#B9E5D1"/>
<path d="M211.972 64.8007H205.737V58.5642H211.972V64.8007Z" fill="#B9E5D1"/>
<path d="M181.496 75.8173H175.26V69.5803H181.496V75.8173Z" fill="#B9E5D1"/>
<path d="M196.734 75.8173H190.498V69.5803H196.734V75.8173Z" fill="#B9E5D1"/>
<path d="M211.972 75.8173H205.737V69.5803H211.972V75.8173Z" fill="#B9E5D1"/>
<path d="M181.496 86.8329H175.26V80.5965H181.496V86.8329Z" fill="#B9E5D1"/>
<path d="M196.734 86.8329H190.498V80.5965H196.734V86.8329Z" fill="#B9E5D1"/>
<path d="M211.972 86.8329H205.737V80.5965H211.972V86.8329Z" fill="#B9E5D1"/>
<path d="M181.496 97.8491H175.26V91.6121H181.496V97.8491Z" fill="#B9E5D1"/>
<path d="M196.734 97.8491H190.498V91.6121H196.734V97.8491Z" fill="#B9E5D1"/>
<path d="M211.972 97.8491H205.737V91.6121H211.972V97.8491Z" fill="#B9E5D1"/>
<path d="M181.496 108.865H175.26V102.629H181.496V108.865Z" fill="#B9E5D1"/>
<path d="M196.734 108.865H190.498V102.629H196.734V108.865Z" fill="#B9E5D1"/>
<path d="M211.972 108.865H205.737V102.629H211.972V108.865Z" fill="#B9E5D1"/>
<path d="M181.496 119.881H175.26V113.645H181.496V119.881Z" fill="#B9E5D1"/>
<path d="M196.734 119.881H190.498V113.645H196.734V119.881Z" fill="#B9E5D1"/>
<path d="M211.972 119.881H205.737V113.645H211.972V119.881Z" fill="#B9E5D1"/>
<path d="M181.496 130.898H175.26V124.661H181.496V130.898Z" fill="#B9E5D1"/>
<path d="M196.734 130.898H190.498V124.661H196.734V130.898Z" fill="#B9E5D1"/>
<path d="M211.972 130.898H205.737V124.661H211.972V130.898Z" fill="#B9E5D1"/>
<path d="M181.496 141.914H175.26V135.677H181.496V141.914Z" fill="#B9E5D1"/>
<path d="M196.734 141.914H190.498V135.677H196.734V141.914Z" fill="#B9E5D1"/>
<path d="M211.972 141.914H205.737V135.677H211.972V141.914Z" fill="#B9E5D1"/>
<path d="M181.496 152.93H175.26V146.693H181.496V152.93Z" fill="#B9E5D1"/>
<path d="M196.734 152.93H190.498V146.693H196.734V152.93Z" fill="#B9E5D1"/>
<path d="M211.972 152.93H205.737V146.693H211.972V152.93Z" fill="#B9E5D1"/>
<path d="M362.281 208.754H316.549V65.8461H362.281V208.754Z" fill="#FF742F" fill-opacity="0.5"/>
<path d="M327.295 82.2468H321.059V76.0103H327.295V82.2468Z" fill="#B9E5D1"/>
<path d="M342.533 82.2468H336.297V76.0103H342.533V82.2468Z" fill="#B9E5D1"/>
<path d="M357.771 82.2468H351.535V76.0103H357.771V82.2468Z" fill="#B9E5D1"/>
<path d="M327.295 93.2635H321.059V87.0271H327.295V93.2635Z" fill="#B9E5D1"/>
<path d="M342.533 93.2635H336.297V87.0271H342.533V93.2635Z" fill="#B9E5D1"/>
<path d="M357.771 93.2635H351.535V87.0271H357.771V93.2635Z" fill="#B9E5D1"/>
<path d="M327.295 104.28H321.059V98.0426H327.295V104.28Z" fill="#B9E5D1"/>
<path d="M342.533 104.28H336.297V98.0426H342.533V104.28Z" fill="#B9E5D1"/>
<path d="M357.771 104.28H351.535V98.0426H357.771V104.28Z" fill="#B9E5D1"/>
<path d="M327.295 115.295H321.059V109.059H327.295V115.295Z" fill="#B9E5D1"/>
<path d="M342.533 115.295H336.297V109.059H342.533V115.295Z" fill="#B9E5D1"/>
<path d="M357.771 115.295H351.535V109.059H357.771V115.295Z" fill="#B9E5D1"/>
<path d="M327.295 126.312H321.059V120.075H327.295V126.312Z" fill="#B9E5D1"/>
<path d="M342.533 126.312H336.297V120.075H342.533V126.312Z" fill="#B9E5D1"/>
<path d="M357.771 126.312H351.535V120.075H357.771V126.312Z" fill="#B9E5D1"/>
<path d="M327.295 137.328H321.059V131.091H327.295V137.328Z" fill="#B9E5D1"/>
<path d="M342.533 137.328H336.297V131.091H342.533V137.328Z" fill="#B9E5D1"/>
<path d="M357.771 137.328H351.535V131.091H357.771V137.328Z" fill="#B9E5D1"/>
<path d="M327.295 148.344H321.059V142.107H327.295V148.344Z" fill="#B9E5D1"/>
<path d="M342.533 148.344H336.297V142.107H342.533V148.344Z" fill="#B9E5D1"/>
<path d="M357.771 148.344H351.535V142.107H357.771V148.344Z" fill="#B9E5D1"/>
<path d="M327.295 159.36H321.059V153.123H327.295V159.36Z" fill="#B9E5D1"/>
<path d="M342.533 159.36H336.297V153.123H342.533V159.36Z" fill="#B9E5D1"/>
<path d="M357.771 159.36H351.535V153.123H357.771V159.36Z" fill="#B9E5D1"/>
<path d="M327.295 170.376H321.059V164.14H327.295V170.376Z" fill="#B9E5D1"/>
<path d="M342.533 170.376H336.297V164.14H342.533V170.376Z" fill="#B9E5D1"/>
<path d="M357.771 170.376H351.535V164.14H357.771V170.376Z" fill="#B9E5D1"/>
<path d="M108.795 169.276H52.2319V26.3675H108.795V169.276Z" fill="#FF742F" fill-opacity="0.5"/>
<path d="M61.9858 123.26H58.1685V49.3418H61.9858V123.26Z" fill="#B9E5D1"/>
<path d="M72.2035 123.26H68.3867V49.3418H72.2035V123.26Z" fill="#B9E5D1"/>
<path d="M82.422 123.26H78.6047V49.3418H82.422V123.26Z" fill="#B9E5D1"/>
<path d="M92.6405 123.26H88.8232V49.3418H92.6405V123.26Z" fill="#B9E5D1"/>
<path d="M102.859 123.26H99.0417V49.3418H102.859V123.26Z" fill="#B9E5D1"/>
<path d="M108.795 42.1812H52.2319V34.2743H108.795V42.1812Z" fill="#E9EDFD"/>
<path d="M6.79922 87.3618C6.79922 88.9858 5.50098 90.3024 3.89972 90.3024C2.29824 90.3024 1 88.9858 1 87.3618C1 85.7379 2.29824 84.4212 3.89972 84.4212C5.50098 84.4212 6.79922 85.7379 6.79922 87.3618V87.3618Z" stroke="#B9E5D1" stroke-width="1.70287" stroke-miterlimit="10"/>
<path d="M351.151 24.2185C351.151 25.8424 349.853 27.1591 348.252 27.1591C346.65 27.1591 345.352 25.8424 345.352 24.2185C345.352 22.5945 346.65 21.2779 348.252 21.2779C349.853 21.2779 351.151 22.5945 351.151 24.2185V24.2185Z" stroke="#B9E5D1" stroke-width="1.70287" stroke-miterlimit="10"/>
<path d="M214.799 54.9221C214.799 56.6059 213.454 57.9711 211.794 57.9711C210.134 57.9711 208.788 56.6059 208.788 54.9221C208.788 53.2383 210.134 51.8737 211.794 51.8737C213.454 51.8737 214.799 53.2383 214.799 54.9221Z" stroke="#B9E5D1" stroke-width="1.70287" stroke-miterlimit="10"/>
<path d="M42.3108 14.658H63.4141" stroke="#B9E5D1" stroke-width="1.33136" stroke-miterlimit="10"/>
<path d="M354.295 79.6572H372.605" stroke="#B9E5D1" stroke-width="1.33136" stroke-miterlimit="10"/>
<path d="M200.66 1H232.552" stroke="#B9E5D1" stroke-width="1.33136" stroke-miterlimit="10"/>
<path d="M255.735 208.702H316.168C323.882 208.702 330.135 202.448 330.135 194.733V33.8748C330.135 26.16 323.882 19.9057 316.168 19.9057H255.735C248.022 19.9057 241.768 26.16 241.768 33.8748V194.733C241.768 202.448 248.022 208.702 255.735 208.702Z" fill="#815757"/>
<path d="M246.568 208.702H307C314.714 208.702 320.967 202.448 320.967 194.733V33.8748C320.967 26.16 314.714 19.9057 307 19.9057H246.568C238.854 19.9057 232.6 26.16 232.6 33.8748V194.733C232.6 202.448 238.854 208.702 246.568 208.702Z" fill="#C62828"/>
<path d="M246.484 204.47H307.083C312.394 204.47 316.698 200.164 316.698 194.853V34.6394C316.698 29.3281 312.394 25.0224 307.083 25.0224H246.484C241.174 25.0224 236.869 29.3281 236.869 34.6394V194.853C236.869 200.164 241.174 204.47 246.484 204.47Z" fill="white"/>
<path d="M261.97 29.7454H290.942C292.377 29.7454 293.539 28.5824 293.539 27.1477V22.9109H259.373V27.1477C259.373 28.5824 260.535 29.7454 261.97 29.7454" fill="#C62828"/>
<path d="M268.603 25.3917H281.997" stroke="#312220" stroke-width="1.1578" stroke-miterlimit="10" stroke-linecap="round" stroke-linejoin="round"/>
<path d="M312.392 110.405H241.239V57.1089H312.392V110.405Z" fill="#E2F5ED"/>
<path d="M316.869 61.2093L228.459 127.967" stroke="white" stroke-width="6.83467" stroke-miterlimit="10"/>
<path d="M337.907 72.2319L249.498 138.99" stroke="white" stroke-width="6.83467" stroke-miterlimit="10"/>
<path d="M295.421 50.5188L217.27 109.531" stroke="white" stroke-width="6.83467" stroke-miterlimit="10"/>
<path d="M246.279 51.9934L279.033 100.158C280.144 101.791 279.854 103.996 278.359 105.287L267.846 114.363C263.052 118.502 262.39 123.01 266.347 127.955L283.316 151.845" stroke="white" stroke-width="6.83467" stroke-miterlimit="10"/>
<path d="M300.851 51.844C300.851 45.0597 293.691 39.9485 286.516 43.6568C285.401 44.2332 283.985 45.6253 283.377 46.7241C281.499 50.1214 281.669 53.4717 283.018 56.119H283.008L283.084 56.257C283.119 56.3223 283.155 56.3859 283.191 56.4501L291.419 71.3304L299.661 56.4258C299.689 56.3762 299.717 56.326 299.744 56.2754L299.782 56.2069H299.777C300.46 54.9016 300.851 53.4194 300.851 51.844Z" fill="#815757"/>
<path d="M295.597 51.7443C295.597 54.0524 293.727 55.9233 291.419 55.9233C289.111 55.9233 287.24 54.0524 287.24 51.7443C287.24 49.4361 289.111 47.5653 291.419 47.5653C293.727 47.5653 295.597 49.4361 295.597 51.7443Z" fill="white"/>
<path d="M205.945 163.812H196.177C186.587 163.812 178.813 173.874 178.813 186.286C178.813 198.699 186.587 208.761 196.177 208.761H205.945C215.535 208.761 223.31 198.699 223.31 186.286C223.31 173.874 215.535 163.812 205.945 163.812Z" fill="black"/>
<path d="M327.765 163.812H317.996C308.407 163.812 300.632 173.874 300.632 186.286C300.632 198.699 308.407 208.761 317.996 208.761H327.765C337.355 208.761 345.129 198.699 345.129 186.286C345.129 173.874 337.355 163.812 327.765 163.812Z" fill="black"/>
<path d="M281.367 158.367H209.358V190.577H281.367V158.367Z" fill="black"/>
<path d="M265.686 186.749C265.686 198.873 258.093 208.702 248.726 208.702C239.358 208.702 231.764 198.873 231.764 186.749C231.764 174.625 239.358 164.796 248.726 164.796C258.093 164.796 265.686 174.625 265.686 186.749Z" fill="black"/>
<path d="M239.184 208.702H248.726L258.479 198.946L248.726 164.796H239.184V208.702Z" fill="black"/>
<path d="M256.145 186.749C256.145 198.873 248.551 208.702 239.184 208.702C229.816 208.702 222.222 198.873 222.222 186.749C222.222 174.625 229.816 164.796 239.184 164.796C248.551 164.796 256.145 174.625 256.145 186.749Z" fill="#C62828"/>
<path d="M246.2 186.286C246.2 192.42 242.534 197.393 238.012 197.393C233.489 197.393 229.823 192.42 229.823 186.286C229.823 180.152 233.489 175.181 238.012 175.181C242.534 175.181 246.2 180.152 246.2 186.286Z" fill="#B8B8C2"/>
<path d="M250.012 186.286C250.012 192.42 246.346 197.393 241.824 197.393C237.301 197.393 233.635 192.42 233.635 186.286C233.635 180.152 237.301 175.181 241.824 175.181C246.346 175.181 250.012 180.152 250.012 186.286Z" fill="white"/>
<path d="M159.549 158.367H87.5396V190.577H159.549V158.367Z" fill="black"/>
<path d="M143.867 186.749C143.867 198.873 136.273 208.702 126.905 208.702C117.538 208.702 109.945 198.873 109.945 186.749C109.945 174.625 117.538 164.796 126.905 164.796C136.273 164.796 143.867 174.625 143.867 186.749Z" fill="black"/>
<path d="M117.364 208.702H126.906L136.66 198.946L126.906 164.796H117.364V208.702Z" fill="black"/>
<path d="M134.326 186.749C134.326 198.873 126.732 208.702 117.364 208.702C107.997 208.702 100.403 198.873 100.403 186.749C100.403 174.625 107.997 164.796 117.364 164.796C126.732 164.796 134.326 174.625 134.326 186.749Z" fill="#C62828"/>
<path d="M124.38 186.286C124.38 192.42 120.715 197.393 116.192 197.393C111.67 197.393 108.004 192.42 108.004 186.286C108.004 180.152 111.67 175.181 116.192 175.181C120.715 175.181 124.38 180.152 124.38 186.286Z" fill="#B8B8C2"/>
<path d="M128.193 186.286C128.193 192.42 124.527 197.393 120.004 197.393C115.482 197.393 111.816 192.42 111.816 186.286C111.816 180.152 115.482 175.181 120.004 175.181C124.527 175.181 128.193 180.152 128.193 186.286Z" fill="white"/>
<path d="M76.1006 190.576V152.438C76.1006 146.998 80.0899 142.363 85.4765 141.614C90.2048 140.958 96.2583 140.385 102.524 140.501C102.524 140.501 138.727 118.244 152.003 118.244L235.173 117.816C246.306 117.664 257.315 120.173 267.283 125.134L304.323 143.568L353.57 154.352C353.57 154.352 363.772 157.12 365.957 163.752C368.143 170.384 367.415 177.671 367.415 177.671H259.251C259.251 177.671 254.376 162.343 238.779 162.343C223.181 162.343 218.957 181.152 219.932 190.576H138.21C138.21 190.576 138.535 162.627 117.413 163.602C96.2912 164.577 97.916 190.576 97.916 190.576H76.1006Z" fill="#815757"/>
<path d="M76.9031 177.671C74.0534 177.671 71.7424 179.98 71.7386 182.829L71.7354 185.415C71.7354 188.265 74.0459 190.576 76.8966 190.576H97.9158C97.9158 190.576 97.8085 183.542 99.6721 177.671H76.9031" fill="#FF742F"/>
<path d="M203.349 107.305H171.072C168.383 107.305 166.203 109.485 166.203 112.174V118.245H208.217V112.174C208.217 109.485 206.037 107.305 203.349 107.305Z" fill="black"/>
<path d="M209.628 107.305H177.351C174.662 107.305 172.483 109.485 172.483 112.174V118.245H214.496V112.174C214.496 109.485 212.316 107.305 209.628 107.305Z" fill="#FF742F"/>
<path d="M184.039 110.705H182.038V109.756H187.161V110.705H185.16V115.793H184.039V110.705Z" fill="black"/>
<path d="M191.898 113.517L190.76 110.877L189.63 113.517H191.898ZM192.269 114.396H189.251L188.656 115.793H187.5L190.217 109.756H191.32L194.046 115.793H192.873L192.269 114.396Z" fill="black"/>
<path d="M198.965 115.793L197.327 113.499L195.705 115.793H194.429L196.672 112.714L194.549 109.756H195.818L197.361 111.903L198.887 109.756H200.104L197.991 112.671L200.259 115.793H198.965Z" fill="black"/>
<path d="M201.59 109.756H202.711V115.793H201.59V109.756Z" fill="black"/>
<path d="M219.612 142.037L186.745 123.547C183.954 121.977 180.805 121.152 177.601 121.152H158.03C152.966 121.152 148.005 122.583 143.718 125.281L112.493 143.002C111.601 143.508 111.96 144.869 112.985 144.869H218.87C220.426 144.869 220.968 142.801 219.612 142.037Z" fill="black"/>
<path d="M112.286 143.771V157.034C112.286 157.034 140.961 151.258 143.867 184.124H209.358C209.358 184.124 207.608 151.997 219.7 144.16" stroke="black" stroke-width="1.04803" stroke-miterlimit="10" stroke-linecap="round" stroke-linejoin="round"/>
<path d="M165.733 144.869C165.733 144.869 158.901 147.9 162.214 184.124" stroke="black" stroke-width="1.04803" stroke-miterlimit="10" stroke-linecap="round" stroke-linejoin="round"/>
<path d="M176.267 151.289H169.686C168.966 151.289 168.383 150.705 168.383 149.985V149.381C168.383 148.661 168.966 148.077 169.686 148.077H176.267C176.988 148.077 177.571 148.661 177.571 149.381V149.985C177.571 150.705 176.988 151.289 176.267 151.289Z" fill="black"/>
<path d="M126.834 151.289H120.253C119.533 151.289 118.949 150.705 118.949 149.985V149.381C118.949 148.661 119.533 148.077 120.253 148.077H126.834C127.554 148.077 128.138 148.661 128.138 149.381V149.985C128.138 150.705 127.554 151.289 126.834 151.289Z" fill="black"/>
<path d="M199.24 124.894L236.859 144.869H300.814L257.79 123.828C254.189 122.067 250.234 121.152 246.226 121.152H200.172C198.101 121.152 197.412 123.922 199.24 124.894Z" fill="black"/>
<path d="M246.2 148.077H305.4" stroke="black" stroke-width="1.04803" stroke-miterlimit="10" stroke-linecap="round" stroke-linejoin="round"/>
<path d="M211.42 121.152L253.178 144.869H267.113L225.368 121.152H211.42Z" fill="#5E5E5E"/>
<path d="M237.432 121.152L279.191 144.869H283.72L241.975 121.152H237.432Z" fill="#5E5E5E"/>
<path d="M361.07 190.576H264.402C261.551 190.576 259.24 188.265 259.24 185.415L259.251 177.671H367.415L367.328 184.318C367.328 187.774 364.527 190.576 361.07 190.576" fill="#FF742F"/>
<path d="M335.976 181.379H318.428V176.069H335.976V181.379Z" fill="white"/>
<path d="M297.616 165.482H349.339" stroke="black" stroke-width="1.04803" stroke-miterlimit="10" stroke-linecap="round" stroke-linejoin="round"/>
<path d="M307.056 169.432H341.05" stroke="black" stroke-width="1.04803" stroke-miterlimit="10" stroke-linecap="round" stroke-linejoin="round"/>
<path d="M307.056 173.366H341.05" stroke="black" stroke-width="1.04803" stroke-miterlimit="10" stroke-linecap="round" stroke-linejoin="round"/>
<path d="M299.774 173.961H277.198C275.29 173.961 273.744 172.415 273.744 170.507V167.266C273.744 165.358 275.29 163.812 277.198 163.812H299.774C301.682 163.812 303.228 165.358 303.228 167.266V170.507C303.228 172.415 301.682 173.961 299.774 173.961Z" fill="white"/>
<path d="M365.991 163.812H348.867C346.96 163.812 345.413 165.358 345.413 167.266V170.507C345.413 172.415 346.96 173.961 348.867 173.961H367.53C367.682 167.146 366.221 164.229 365.991 163.812Z" fill="white"/>
<path d="M273.744 170.507H303.228" stroke="black" stroke-width="1.04803" stroke-miterlimit="10" stroke-linecap="round" stroke-linejoin="round"/>
<path d="M345.413 170.507H367.414" stroke="black" stroke-width="1.04803" stroke-miterlimit="10" stroke-linecap="round" stroke-linejoin="round"/>
<path d="M163.112 24.3203C163.112 14.2682 152.502 6.69406 141.871 12.1887C140.219 13.0427 138.12 15.1061 137.221 16.7338C134.439 21.7674 134.689 26.7315 136.688 30.6539H136.674L136.787 30.8588C136.838 30.9553 136.892 31.0502 136.945 31.1451L149.136 53.193L161.348 31.1095C161.389 31.0351 161.431 30.9617 161.471 30.8863L161.527 30.7849H161.52C162.532 28.8504 163.112 26.6544 163.112 24.3203Z" fill="#815757"/>
<path d="M155.328 24.1721C155.328 27.592 152.555 30.3649 149.136 30.3649C145.717 30.3649 142.945 27.592 142.945 24.1721C142.945 20.7528 145.717 17.9799 149.136 17.9799C152.555 17.9799 155.328 20.7528 155.328 24.1721Z" fill="white"/>
<path d="M98.0339 197.809H106.753L121.171 205.523L96.3789 205.228L98.0339 197.809Z" fill="#101010"/>
<path d="M96.2925 208.491L96.3787 205.228L121.17 205.523L121.085 208.786L96.2925 208.491Z" fill="white"/>
<path d="M112.778 200.65L109.922 201.431" stroke="white" stroke-width="1.94209" stroke-miterlimit="10" stroke-linecap="round" stroke-linejoin="round"/>
<path d="M109.986 199.217L107.129 199.998" stroke="white" stroke-width="1.94209" stroke-miterlimit="10" stroke-linecap="round" stroke-linejoin="round"/>
<path d="M107.675 185.516H98.7887L98.0339 197.809H106.92L107.675 185.516Z" fill="#EBB28B"/>
<path d="M113.49 104.741L108.01 193.857H95.6365L97.7745 104.741H113.49Z" fill="#B9E5D1"/>
<path d="M77.9963 197.809H86.715L101.134 205.523L76.3413 205.228L77.9963 197.809Z" fill="#101010"/>
<path d="M76.2559 208.491L76.3416 205.228L101.134 205.523L101.048 208.786L76.2559 208.491Z" fill="white"/>
<path d="M92.7411 200.65L89.885 201.431" stroke="white" stroke-width="1.94209" stroke-miterlimit="10" stroke-linecap="round" stroke-linejoin="round"/>
<path d="M89.9492 199.217L87.0925 199.998" stroke="white" stroke-width="1.94209" stroke-miterlimit="10" stroke-linecap="round" stroke-linejoin="round"/>
<path d="M88.5205 185.516H79.6341L77.9963 197.809H86.8833L88.5205 185.516Z" fill="#EBB28B"/>
<path d="M87.2881 104.741L75.1726 193.857H88.6989L106.309 104.741H87.2881Z" fill="#B9E5D1"/>
<path d="M96.5957 153.897L103.51 118.904L108.558 115.614" stroke="#171717" stroke-width="0.850184" stroke-miterlimit="10" stroke-linecap="round" stroke-linejoin="round"/>
<path d="M85.5125 117.804L93.0684 111.855" stroke="#171717" stroke-width="0.850184" stroke-miterlimit="10" stroke-linecap="round" stroke-linejoin="round"/>
<path d="M115.818 70.871L129.584 88.9486C131.106 90.6502 131.201 93.1951 129.809 95.005C128.054 97.2868 124.689 97.4922 122.669 95.4407L107.875 78.3287C105.846 76.2681 105.78 72.9819 107.724 70.8409H107.725C109.898 68.4486 113.663 68.4632 115.818 70.871Z" fill="#EBB28B"/>
<path d="M109.076 64.0135C109.076 64.0135 115.806 64.8535 120.958 74.842L113.043 84.3312L109.076 64.0135Z" fill="#C62828"/>
<path d="M120.146 89.6905L139.017 77.8537L142.774 81.733L129.093 95.7534L120.146 89.6905Z" fill="#EBB28B"/>
<path d="M142.04 70.4575L151.397 73.1878C151.397 73.1878 151.397 80.4407 142.766 81.7519C142.294 81.8236 140.17 81.0105 139.804 80.6849L138.368 76.59C137.859 75.9187 137.902 74.9789 138.471 74.3573L142.04 70.4575Z" fill="#EBB28B"/>
<path d="M141.266 71.6641L144.576 67.3179C145.068 66.7114 145.909 66.5841 146.466 67.0311C147 67.4603 147.087 68.2712 146.665 68.8907L143.608 73.658L141.266 71.6641Z" fill="#E9B0A0"/>
<path d="M145.267 75.1315L149.244 71.2064C149.794 70.6549 150.61 70.5982 151.078 71.0797C151.527 71.5418 151.5 72.3397 151.015 72.9096L147.221 77.2666L145.267 75.1315Z" fill="#E9B0A0"/>
<path d="M143.736 72.4502L147.493 68.7381C148.047 68.1909 148.888 68.1671 149.384 68.6847C149.859 69.1808 149.85 70.0046 149.364 70.5739L145.805 74.7401L143.736 72.4502Z" fill="#E9B0A0"/>
<path d="M150.06 61.0507L151.55 61.1467V70.9276L146.321 79.1154L144.732 78.9854L147.537 68.7004L150.06 61.0507Z" fill="#36438D"/>
<path d="M141.297 74.6269L145.666 78.7466C146.066 79.2437 146.825 79.2372 147.216 78.7331L156.73 66.8565C156.963 66.5561 156.959 66.1356 156.721 65.8396L152.137 61.4535C151.805 61.04 151.174 61.0459 150.849 61.4648L141.286 73.4046C141.006 73.7653 141.01 74.271 141.297 74.6269Z" fill="#050907"/>
<path d="M139.843 74.5303L144.213 78.6501C144.612 79.1472 145.371 79.1402 145.761 78.636L155.276 66.7599C155.509 66.4596 155.505 66.0391 155.267 65.7431L150.683 61.357C150.351 60.9435 149.719 60.9494 149.395 61.3683L139.832 73.3081C139.552 73.6688 139.556 74.1745 139.843 74.5303Z" fill="white"/>
<path d="M139.377 77.9211C138.865 77.6694 137.586 76.3355 137.812 74.3136C138.109 71.6529 139.484 69.6375 139.484 69.6375C139.94 68.7807 140.47 68.3661 141.212 68.4696C142.016 68.5823 142.532 69.4385 142.388 70.0332L141.55 71.8912C141.55 71.8912 142.472 74.2468 140.542 77.8171L139.377 77.9211Z" fill="#EBB28B"/>
<path d="M96.4138 62.0973C96.4138 62.0973 91.3237 63.2867 87.6946 65.1171C85.4099 66.2698 85.1565 68.7602 85.4439 71.3029L87.2881 104.741H113.49L115.323 72.4362C115.575 68.8923 113.494 65.4191 110.13 64.276C106.362 62.995 103.982 61.7754 101.977 61.6589L96.4138 62.0973" fill="#C62828"/>
<path d="M114.767 82.2641L115.323 72.4363" stroke="#171717" stroke-width="0.850184" stroke-miterlimit="10" stroke-linecap="round" stroke-linejoin="round"/>
<path d="M96.4139 62.0973L93.3928 62.9276C93.3928 62.9276 95.6365 67.2517 103.787 66.52C109.503 66.0073 107.2 63.2106 107.2 63.2106L104.356 62.1814L96.4139 62.0973Z" fill="#EBB28B"/>
<path d="M71.6534 81.2942L85.1829 101.216L81.5392 105.202L66.6042 90.5667L71.6534 81.2942Z" fill="#EBB28B"/>
<path d="M97.6145 102.122L91.8273 99.1792L92.3955 97.9089C92.6025 97.4469 92.4742 96.9029 92.0828 96.5815C91.6785 96.2494 91.099 96.2402 90.6845 96.5594L84.9846 101.036L81.5393 105.202C84.6655 107.879 86.7087 107.846 87.886 107.328C88.0235 107.373 88.1593 107.424 88.299 107.463L93.1087 108.843C93.5535 109.035 94.071 108.847 94.2888 108.415C94.4473 108.101 94.5034 107.598 93.5778 107.128L94.5034 107.598C94.974 107.801 95.5206 107.596 95.74 107.132C95.9471 106.723 95.6931 106.182 95.1497 105.829L95.8581 106.107C96.3713 106.328 96.9756 106.076 97.1681 105.532C97.3341 105.061 97.0851 104.541 96.6392 104.315L95.6166 103.798L96.8312 104.092C97.3902 104.289 98.0139 103.991 98.1972 103.405C98.3546 102.902 98.084 102.361 97.6145 102.122Z" fill="#EBB28B"/>
<path d="M95.9243 103.943L92.5027 102.328" stroke="#171717" stroke-width="0.552121" stroke-miterlimit="10" stroke-linecap="round" stroke-linejoin="round"/>
<path d="M95.0043 105.768L91.7056 104.394" stroke="#171717" stroke-width="0.552121" stroke-miterlimit="10" stroke-linecap="round" stroke-linejoin="round"/>
<path d="M93.8841 107.249L91.0889 106.146" stroke="#171717" stroke-width="0.552121" stroke-miterlimit="10" stroke-linecap="round" stroke-linejoin="round"/>
<path d="M90.63 75.8028L73.4249 90.6437C71.8195 92.2671 69.2852 92.5162 67.3941 91.2363C65.0102 89.6231 64.6011 86.2754 66.5256 84.135L82.7043 68.3262C84.6375 66.1755 87.9135 65.9102 90.168 67.7213C92.6877 69.7453 92.9028 73.5048 90.63 75.8028Z" fill="#EBB28B"/>
<path d="M91.4058 63.5772C91.4058 63.5772 82.4267 65.3322 75.0605 74.6721L82.8671 84.8499L94.0597 76.8336L91.4058 63.5772" fill="#C62828"/>
<path d="M86.6667 82.1282L93.1596 77.4779" stroke="#171717" stroke-width="0.850184" stroke-miterlimit="10" stroke-linecap="round" stroke-linejoin="round"/>
<path d="M110.332 34.0258C110.332 34.0258 113.363 36.7351 110.848 42.8179L106.686 34.6054L110.332 34.0258Z" fill="#815757"/>
<path d="M93.3496 34.7596C93.3496 34.7596 89.8094 34.3746 89.0057 39.8353C88.2019 45.2964 92.2143 48.5605 96.6683 51.2008L93.3496 34.7596Z" fill="#815757"/>
<path d="M110.888 41.7396C110.888 47.4801 106.34 52.1335 100.731 52.1335C95.1208 52.1335 90.573 47.4801 90.573 41.7396C90.573 35.9997 95.1208 31.3462 100.731 31.3462C106.34 31.3462 110.888 35.9997 110.888 41.7396Z" fill="#815757"/>
<path d="M107.292 46.2168C107.746 47.5658 109.207 48.2915 110.555 47.8381C111.904 47.3846 112.63 45.9235 112.176 44.5745C111.723 43.2255 110.262 42.4993 108.913 42.9533C107.564 43.4067 106.839 44.8678 107.292 46.2168Z" fill="#DD8161"/>
<path d="M104.404 52.1967L104.555 63.4102L96.1924 62.0277L96.7999 45.9451L104.404 52.1967Z" fill="#EBB28B"/>
<path d="M104.485 57.8783L98.6113 52.1335L104.671 53.1978L104.485 57.8783Z" fill="#171717"/>
<path d="M109.675 36.7464C109.675 36.7464 111.937 45.7785 110.915 49.2458C109.894 52.7137 107.202 54.9615 102.705 54.2239C102.705 54.2239 97.5196 54.1247 95.987 46.4772C93.6796 34.9639 104.098 30.7488 109.675 36.7464Z" fill="#EBB28B"/>
<path d="M97.4393 46.4707C97.4393 46.4707 100.758 38.8469 97.1536 37.3605C96.0722 36.9146 95.4382 36.6881 94.9271 40.5092C94.4155 44.3297 95.7498 44.9551 95.7498 44.9551L97.4393 46.4707Z" fill="#815757"/>
<path d="M92.8501 47.3463C93.3191 48.7406 94.8286 49.4906 96.2227 49.0221C97.6168 48.553 98.3666 47.0428 97.8982 45.6491C97.4297 44.2548 95.9197 43.5043 94.5256 43.9728C93.1321 44.4419 92.3817 45.9521 92.8501 47.3463Z" fill="#EBB28B"/>
<path d="M94.1504 45.7558C94.1504 45.7558 96.0846 45.1368 96.6685 47.2687" stroke="#171717" stroke-width="0.525888" stroke-miterlimit="10" stroke-linecap="round" stroke-linejoin="round"/>
<path d="M107.819 45.4609L108.397 47.4111C108.425 47.5561 108.335 47.6973 108.192 47.7324L107.537 47.8375" stroke="#1E0B07" stroke-width="0.497083" stroke-miterlimit="10" stroke-linecap="round" stroke-linejoin="round"/>
<path d="M103.753 44.8506C103.732 45.2059 104.003 45.511 104.357 45.5321C104.713 45.5536 105.018 45.283 105.039 44.9277C105.06 44.5729 104.79 44.2677 104.435 44.2462C104.08 44.2251 103.775 44.4958 103.753 44.8506Z" fill="#171717"/>
<path d="M109.138 44.7055C109.118 45.0349 109.369 45.3174 109.699 45.3374C110.028 45.3573 110.311 45.1061 110.331 44.7772C110.35 44.4478 110.099 44.1647 109.77 44.1448C109.441 44.1253 109.158 44.3761 109.138 44.7055Z" fill="#171717"/>
<path d="M105.611 40.4892L100.759 42.0404C100.759 42.0404 101.837 40.5583 103.237 40.1183C104.636 39.6783 105.611 40.4892 105.611 40.4892Z" fill="#171717"/>
<path d="M108.333 40.375L110.888 41.1988C110.888 41.1988 110.449 40.1064 109.711 39.8746C108.974 39.6433 108.333 40.375 108.333 40.375Z" fill="#171717"/>
<path d="M104.396 48.3211C104.396 48.3211 106.183 49.2312 107.969 49.2312C107.969 49.2312 105.539 50.9959 104.396 48.3211Z" fill="white"/>
<path d="M96.0743 37.4479C96.0743 37.4479 98.7735 39.7738 105.456 38.4275C112.137 37.0807 112.401 32.5512 111.596 30.9596C111.596 30.9596 109.137 32.8688 105.086 31.8249C102.826 31.2421 97.7794 29.1183 94.7492 31.3931C93.705 32.1776 93.098 33.478 93.3497 34.7596C93.5443 35.7511 94.2063 36.8834 96.0743 37.4479Z" fill="#815757"/>
<path d="M65.6625 155.731H48.2693V118.466C48.2693 114.74 51.2887 111.721 55.0133 111.721H58.919C62.6436 111.721 65.6625 114.74 65.6625 118.466V155.731Z" stroke="#101010" stroke-width="3.82461" stroke-miterlimit="10"/>
<path d="M52.105 204.747C52.105 206.977 50.2969 208.786 48.0666 208.786C45.8364 208.786 44.0283 206.977 44.0283 204.747C44.0283 202.517 45.8364 200.708 48.0666 200.708C50.2969 200.708 52.105 202.517 52.105 204.747Z" fill="#101010"/>
<path d="M69.9041 204.747C69.9041 206.977 68.096 208.786 65.8652 208.786C63.635 208.786 61.8269 206.977 61.8269 204.747C61.8269 202.517 63.635 200.708 65.8652 200.708C68.096 200.708 69.9041 202.517 69.9041 204.747Z" fill="#101010"/>
<path d="M70.7759 203.8H43.1561C39.2152 203.8 36.0205 200.605 36.0205 196.664V150.07C36.0205 146.128 39.2152 142.933 43.1561 142.933H70.7759C74.7172 142.933 77.9118 146.128 77.9118 150.07V196.664C77.9118 200.605 74.7172 203.8 70.7759 203.8" fill="#C62828"/>
<path d="M44.7355 194.631H43.2061V152.559H44.7355V194.631Z" stroke="#171717" stroke-width="0.817204" stroke-miterlimit="10" stroke-linecap="round" stroke-linejoin="round"/>
<path d="M52.87 194.631H51.3406V152.559H52.87V194.631Z" stroke="#171717" stroke-width="0.817204" stroke-miterlimit="10" stroke-linecap="round" stroke-linejoin="round"/>
<path d="M61.0043 194.631H59.4749V152.559H61.0043V194.631Z" stroke="#171717" stroke-width="0.817204" stroke-miterlimit="10" stroke-linecap="round" stroke-linejoin="round"/>
<path d="M69.1385 194.631H67.6091V152.559H69.1385V194.631Z" stroke="#171717" stroke-width="0.817204" stroke-miterlimit="10" stroke-linecap="round" stroke-linejoin="round"/>
<path d="M9.72119 208.761H374" stroke="black" stroke-width="1.30461" stroke-miterlimit="10" stroke-linecap="round" stroke-linejoin="round"/>
</svg>
